<mxfile host="app.diagrams.net" modified="2021-10-09T08:57:59.631Z" agent="5.0 (Macintosh; Intel Mac OS X 10_14_0) AppleWebKit/537.36 (KHTML, like Gecko) Chrome/94.0.4606.71 Safari/537.36" etag="bAxNwJz0BY7tU8llWdSy" version="15.3.3" type="github">
  <diagram id="8hxLdnUO6_xAeARKItcA" name="第 1 页">
    <mxGraphModel dx="1186" dy="555" grid="1" gridSize="10" guides="1" tooltips="1" connect="1" arrows="1" fold="1" page="1" pageScale="1" pageWidth="827" pageHeight="1169" math="0" shadow="0">
      <root>
        <mxCell id="0" />
        <mxCell id="1" parent="0" />
        <mxCell id="ODsdG-qiCXv28M3b4BW5-1" value="" style="shape=stencil(vZzL0hy3DYWfRltW806sHec9XGU5UkWRXLKcy9vndCk9+vug52B6k50u/Gam2SQIHAB8V3/648Mvv79/V7Y/vn398vf3//r467cP7+pf3pXy8fOH918/fsOf3tWf39Wffvvy9f3fvn758/Ov3//++y/7yP1P//jyz/0T/v2d29K27VDZ/kP/8Nfvwz99/KyG5zSzGl7yaXhPo6nha52GW1r2fHhOeZx/TE5rqPHj/PG5y19fUrbzeEu9q/GrncaXmpqYTPzv+feUkYYY31Iu5/GYH/H72zHZx/ha0hDz2dNWz+NbMvG6eur0+TPlpcYbff5KU4wfqZ5XT9vk+xqpz/P4nEw870h2Xj+tpi7Gz1TO89/6sUKejB/nzdJGalONt/N6ayttYn5WKv083lIV63+lTrtxO2bgyfh1/j29pCLWg6VyXs+9piX2i/H66ZjPqsZP+j0jbWL+Ldn5ffWZqpj/DOt2ntC+UhU/CACt0I45UBZr4yUKQG0xAPO8hgbembARANb5oUc+pvkZYOeHHkXuYhjZbTHwv+98BtApMGD5lJ3OxzZ5ADB96qEz7zQAUz00jq2zKRr6KPhxsjwAWCextgHYYkAZo4xZp1mC/VCL77EZH8CS5gtAp1nCatXfMCoDS22gkuZ5luZ22JxnAJkYAEv9pJq28/Ke8ALUe6gpNwammqWaynnxzZKaWkuPQ/4NMNXy9kCVdh5ArwxMteNqGvQemjwZAJBpnV36gQDItgJQZ0luh1F5ANrZAdDooWfq+hsGPcM65u0ZQJZvWmpqaXQ2ZGtLTS2+fti5BwDTpvZDP97rAyj6yOpsZhbWkvqGwWYGgKlvGGxmFiZaLb5x/OIHgHlTL24cn/cGkGfcSPP84tY4XLNnAAUWAOShOI9JfADatQVAZgaAPBQnm5m1jo94BpDVACBPURwfnQHlbgOYNEumj104rJmBph4a/mxjQJ7TmJN5E6jnWTI4dWqW1mFU3gBVzdI6Yq43gHQd1uHhPYB8BFrXgKVtMiB9DRzjGwND7Wk73No3gHRO7PAsHkA5XN9nwOoMSG/GDiv0BjAVbG/H2nwAj5P7GVAqA8pfAlAHA6b0gu04Ph5Akw4WADJkAKTC4BWSJj2yktmQxUCuN4HqHjoAhnvoALB7z1BYGIqBVm4C4957KM4IBEB1ezoE2r1prYfZeh3gLRoAze24EGj3pvUR5r0KdBYwY6DcW0v97n7oLNPFgN17hnGxH6SZGYeK8aohG24DBaZyHD/gVWMMF44eOjgf5nHuv3hkASC5NzhFAdTCgDrYAfAW1b4GgOkcLOX+7BLiYEC5cLuGSL639ioBVOdVKr8VAO3pwDMGMG753gDICATe/S5sTgaK/kmkzAYRSjGW6gF09QzGWm4QNAGoNK1arN/V1syA0ioBkF0KIsVdb90YGGKL1u2Qbl4MXgGQwhyExwAaPfRD+XsGkCYNQGnMAAatJa0JACBDNnUWBwClTQBk9dCZLV8ghAAgyzfn4Wc+A0j3BqAyAwAaqXBa/QFAQnmgLwEgoTxQsAAsmlatkQEg2xqocJeA0vkuAK0kXgJKq7wE8r1nyDKHdQkogfYC0BLwJaBE5ktA5e1qObb8i7o3ADpFY4BO0RiglEj8DJQSiaa1cEoketOFUyLRWqp8KEb7ofKhiC26qeVd+VAEMPQ3UIZj6goFAJywCAxZ4yMrMpXNaffrkJ2vge6U9eB86M62BifQ4IwfzripvmHw4ouO3eFk7OBgn5zLilyHyS8uck6WE2i1+1MXZ2kCoXyvfnBepfL5AFDSJfAqq/HSCPxWAJR0CTxjACSfBr43AMrSAFBFOwAoob0e7/4SaJtbrTrgAFDJ59MhDQBSQ4Ogaa9bKQwoKR4AyadBHAeAN5COFFvmPFAQiwKgPFCge18AOjwGQImjQPcGwHqrlrEBUKYpUKUBsECrRWYALNBqXaMVJ9Bq5QRAdnKR0mYANCcXKfUHQL8l2wG4p+gCmLd0PgBeApbPUDlxFM1SZcsXvYfKhixaGtVJwMHiaxdpHbm8G6ebox3XLsyMtBqdFd3IkHXeopH17jdzu21wwiIQQgDUW54AAE6kaucEAOdFddq/TZcX1SICAFJ0g9IFAMUVR6jaPACk6AZu6AWg6zUAkAQMV9rUm56cdAFQ1OKbnKoNvHsAtEUBVPWTFqdqA9UBAO3pIEIBQCJzIFMAaLeCpgtA6xqXgKpzBtAXAyrwA0C6dyCEAKDS60AIAUC5rCB4bcbp5qCOrBmbyhioTjkJAFLW/w9AOEsekO/hCpBv2gPBWroC5PL2QLDjjBMWkREwTlhEdsk4YRGood31aQSmEgCdooExBkB50cDcA+jufFAic39oDC+eQH3j/EOge/fMDQ/Bodhdx0lw7AKgY3dtssQdAB2KgScAgNIJgTYDgNIJQYajF04nBGJOd30zgb8EgM64QMwBQAcKAFWo311rTuDzAeBEqs6W9cqaceCGAuBEqhZzAHBeVIs5e/eFS3Mqbaa7BqMg8wqAk5BaaumuJSlQTgBwTlEHHHsLiQtpVE0iABJog4pBAM0pJ0oI6a5PKgjLAIxbQggALo7QpQvdtWIFoeXeaXOrmgIAV1OEAOUUg/C4u3avoCIEwHIhvorY++Q9HYg53XWIBSLC3pDklBMlUwBoTtdQQkh3TWiB1AKA0joxQMURptvi+mIzA0Al8LprdAOgcll72xbt6SGTkAAoD2S6Va+73jgAypXuxnbJpnSlu+umA6A8YwBsl3T7YHf9dwBUHNddAx4A5UoP11BnJmNRAJSwMN3SOFwHHgAVTwOgSoS86Zbn4Xr2XiAoZRESrqfuBYJ6UV4g6s0nd314LxCURI5eh2uTi16463qL1mBxWQW9LYbresPGUzHscE1sgfEYrictMIDDNYAFVn+4fq7g5BrN7VR9+g7XnhV4EABoUwROzei8J4IM1fDdVlrNBnAvyzZ885R2XwF4+Vs5yMN3KmkXfPjGI+3kA+A0tQ4jhu/y0YHK8E07Oq89XA9OEDsN11ITRGfDdcgEyXwAvJZ0wDhcw0sQkk7XvxIEvdO1oyx9nQMA7qvTcfh07ShBpD9dO0qQ6JiuHSUQHwCQzBTIG9O1owQCCgDSpQKJZrr+laB8ZhdZXYGOUo2ma3gJKnpm4fxRIGQBKC4dpKSy6TpkAjEOAGd3tD44XUtNoEAC4OyO1jh3odipqEp2BcC5F50OAsCJDp3dma4HJ0jWAOBEh869zObyFlov/yF2v6jI74/okjXKX5quaSdIQ0zXtBPUlE7XtBMUPwJgcVqXVwIgcXrou4GwNklr3g8xtYFcD85YUq2YrqUGJ7dSXPb9RT9pSNVoug6Z4NaMfcvTJRj6Xg4YFa68rVLum65ZJLiMZLrOjOB+lOnaIMYmvZnlmhT6kr7GcgX+wT01yxXHBxfhLFef3Js8spYrBu5Vng/LleoGdwUBoKtC9lyJuuzIFdL2TRrj5Qppm45Fd6ezMKCM8XKVt00LKABIfGha0wFAXQ1Nx6K7L093Qmldarna3qalsr0ch27l0sHrGqwiNC0oAqDF13S0u1z1cNOy6x5TZQaUbV2TRYSmw+M1WURoWv5erj45uLzsR43qG0DF08sVNAfXqa3FhYNNZ0aWq4CuOgBfrgK66mTNchXQVUfsCOhJ16g6Yl+uZLrqiH25kumqK9yWq4AOrs0DQHu66hDf3LWLVYf45iqgq47YAVB4XHWtu7kK6KojdnMFzVUH4OYKmquOp82VG1cdHpurHq46PDZXDFx1tGuutrfq4NVcqW5wJaS5ytuiI0WrHFoWHfgBoBtYig78zFXeFh34mau8De7NNFd5W3SkaK7yNri41FzlbdGBHwDaD0UHfgCoYC24XNQ6x3FFx3HmKm+LDstssJhTdJQFgMKyrLvezFXeZn1jnbnK26zvxDNXSLtfaqT2gytzzTrKMlfmmnWUZa7MNeurBs1VreYh6wvMFaHmLpV1c0WoWcdx5kpE9+vc1J52JaJZX/lorkQ060jRXIlo1rdQmisR/XGX4KtAkZ6AuZrSrK/eNFdTGtx4bK6mNOto11zx4357p3pxrvgx6wtKzRU/7pei6odenIXU98ltrvoxumT1ApBX3F0Bypu5ALQmcAko9+cSUPUFF8CU6YQXAPzhxz3jv3389On7NeVv/5/vJcc/fb/TvP78Xw==);fillColor=none;hachureGap=4;pointerEvents=0;" vertex="1" parent="1">
          <mxGeometry x="28" y="60" width="102" height="35" as="geometry" />
        </mxCell>
        <mxCell id="ODsdG-qiCXv28M3b4BW5-2" value="" style="shape=stencil(tZrLcltHDES/htupOy9gZu04/+Eqy5EqiuWSldffBywVGQ8QdnMW2dEiDn3nBTR67ql++P746dvDqRzf315ffn348+nz2+Op/nQq5enr48Pr05t9OtWPp/rhy8vrwy+vL79//fz+72+fzpHnT7+9/HH+hb/euSMdxxkqx9/uDz+/hz8/fUXhJR0Dhc+yhEsq/XZ4TtKW8Hwkzbfj7T/Pa3xJHTy9fTvXeEkN/H5NWdbRHqmC+JaOdbj2C62heHGzKanL7fiesq7xM8lE8dqX+GozVm/Hy+Xba3y9zNiN+LqOt/Y0wXglybpeVeF6SZrr/NSZDjA/Ib4dSeB4fXyG+yHGlzR1J76lvvU8tiJw/mP8AMcxxmuSrfmcqZSN+G7nd+d5ekkV7h8fbyd0Zz57g+clxuN8FeM1DbB/NOWxxs9Uwfxoaut5l+OSkW7E65qvJCcF6zXSseYHqamA5xmprvlBWhpgvUYSl/47PI8jzTU/CM7PthvX+RebYbC+M7Xh49H5nUnd/I9LRv3v+nVc0tP9QG2bgK+oBLCMNrcAKxF7gy6+anNgum00YVrMVoXWfaG4Dud2USVXIMNEaoCIB1AmNWCug9YCU2nuqayDVqwNDOjrSmuDydeAsZ4G7TD75mtxuQJYfhhQ3bQqzNcGyLqXdMCEbcDsHphopTUVtw5YEhnQ13UYxyXL3gLGug4jYxFrQzw2gbquw8AyzQAZHkB1x4C5rsPAwi7PyxNfgQYrlQF9XYfRYakyYFQPIO1o0ru5aRVY3M7Nh5ulAaubtR/dDRrLTQNG8wCqh9aA5HXQEwtUA9qa+SZWqAbMdS/NAkuidShdPIBqogFjnaVZYbq3LievszSxCjaguVnqMN0boG6WsG62xsi1sRMLZwOKm1asnA3o64mbA6Z7A4ZbB6y1TXzmdR3ygXt3I5pvrymhZY/Q0JJzoh67hG/j/w9i6B4xvFlwB9E2V9CE1eYKTm9JsG01vSdBNm49vClBjoYBzpUgh69mb0uQ422A8yVIAjHANXIkRdXiOzOSBGv1rRZJswa4XoskcgNcs0VKRW2+eyLFyADXDpFyV7vvbkhBrdf28M6SXa0/X9MNEQUGqBMFWHZUS0/iASRsDHDdDZFOdVwO5J3izAANehHJvzpTVQ8ggWmA626IhG2Hb1YYkH3vwQHXShDd3ooX+qQzaNXLcNJ7GDC3upvWvOYl/VPrlye+s0Nrdh5cH4t7wKZekZIu0wAnMEkf24YXmKRTbtPrRdKL93ApQbp9A5w4IwZEz15rEeOoZy+ciJPVw1UGscp6uMsgXlwPlxkGoGRsgBMbxB3s4fpD8HWMATVvAk6ccGDMLaCnJpuAUzPEc+3hkkUOWIF6uGUhLnAP1yzEZu7Rxx6wAvVoZGPjuwdn2v6CKlAP1jSx4nvwpjng9BIHnDvNgGA3s+uEYB9zwOklMq0S7GOycBLsY7I1JNjHZPNJtI/xeThnoa00Y4CGVAmvEZvXSyR7S3CDSX2QYO6SCiTRq8U1TqL1iuu0RCe1w9ZSgjFKxIkEn5PoJQm2JVFkElxIovnUMqnrH7Cq1OhCYiltgGyJdY22JW4HNNqWuOHQaFvilkaDbUmaJg22JWnLDFA3rfjNAA0+JwOCz8mAYFtyoG01rxpsS9Iea7AtSQOu0YXELb4GU5GYCBocQmJTaDAIiRGiwR8kVosGs48BwbnjgFPGDIguHAWcMuaAt+2wg2WAU8bEIxvR58Mu3Nj1+Ub0+bCTOKLPh71KA5wyJm6o5WondJnhaoTu2cAjOH13EHPPZLeK0DbH0b0WvYOQzXEE9+4Oou0Z+Za0jz0j34jwFiIhgoN3B9H3NmLw/NhWD54fO0zB8yPHdQbPjyQEA9wLCiTlWO1x7xuQpGbA3LqbnMEkZED1l/scqFvVaAZXkQHNi14GdC96OdD2Bt29hmWAeA3LgOBbckD3xhCMTiJU5lXt3SmFDPA36VhsnXPE1usDBnhJihXmD3nrpuq1D/++TP7l6fn5/V30H7/3L5/bn95fXK8f/wE=);fillColor=none;hachureGap=4;pointerEvents=0;" vertex="1" parent="1">
          <mxGeometry x="130" y="63" width="43.5" height="16" as="geometry" />
        </mxCell>
        <mxCell id="ODsdG-qiCXv28M3b4BW5-3" value="" style="shape=stencil(rZzZbh43DIWfxrfCaCV1nabvESBObdSNA8fp8vblwJhJdeifHAK9S1N90UKJQx7Svqsfvj98+nZ/V7bvry/Pv9//9fj59eGu/nJXyuPXh/uXx1f50139eFc/fHl+uf/t5fnH189v//3t0z5y/9Mfz3/u/8Lfb9yWtm2HyvYP/MWvb8OfHr8uw0sODSdahpdE9fbwnAovw3viZg3vZRlOqU5r+FyHzzTG7eEltfVkcknd2GtJvC4+91SN1ddU5jqe0sjW+AHjZ2Jjuy1tq6n28zLHNxhfUzX22w5TnuO7eRd6yjB+JDLHt76OJ/M2dHXXOE2+PX6kbT3PuqVhjofzqTlxscbD+dSSZr89ntK27re2Y4U3xtd1v7WnYjyu83ad40eqxv2nNGH9ZN5/ThnWw2kY9mJ1njMV898f6/m0zXxffLyOc3xOzbDvxPNvxXyPE99vqymb/35vOJ6M+zCP13GOb6ka9028wVjHny/ofXe4pQwTDNNBCFBgBkrZuEECtIKA6f+3wyOfAJs+SACGGWZq1gw5besMfUudTKCup9Sz6bYEGOuSeknFngEM1+vxNN4HynHPTqClbln6/HCdQDddnQC03tU+TF+XqzpWMp1drupYp+ntBIDnMzbT3QlA6ymNbPq7LO62IDCtGRraYdgRggAV9iDnZl0NsSvM0EwfKQAYTgCyZ5irHYYdtUhQkxsC07qtHS09zi/dLQAtzaZjFYDXL8+wI6M8Ul5dN9mhkQBt/RaSE8iOw7WfQD1e+fsAHRfhBLrtl85Y9wTIdjPietfvLbHtZs4XfALTdjOMx8ryibFmYDxWlgzAnmGsp8TFDvn5uJsnUI+k4X1gprxumu0oTICaEbDSCgEa7MGO2wQAwwnAlhOY+B54mI5sT+LADnaot6eBMAObjkwAtLQdHArQ4S7Z0aEAXBGwPJ9kQ/Diph1P7tlpRcDyfAI0NYMDgKWnHbIKADnnLKZvlSR1awhYQa4AZfXe045yBagDASvMFQCy+GnHuQIMRsBy97voAEuyI2MBUClwAPmMcxAoLQi06AwjOgODpccREL0PNHWX7PxBAJB3pp0/7JJEQ8D67AqAV8POHwRAS7P5nd5VDLhLdsKxyxggI222ZiYEWO4CgdKTR0gEVKJEC65qoDFcglCMvECU4KrkyzaiRPR0GaWuCwSIXRcIlAM9YqIgeIEowVXNI2gNEBxbVd2ipytE8HSrEq5dIqOceIFowZ1nlBRdoqCodYGowZ0XFBYvEDO4j4ri4gUieroVBcYLBAdt3sL2aKpM4BM95hOFoJjfFYJjXrR2VBsvECU8B+iNF4gRnoPDc8zY96OOVIJzyNc5uI+BMuUFImpzCtucwjYn1DYvEBR8H4QimUswqmQXiBq8JRx+54ySqEtM1EQvECUUIAsABnRCcAHAfk6QL8BUeYeVRrQN35+TqAgAz89JhQQYFQEr2RIANB0nnWsZNR0fAPXOB1p0hh6dgWMzFKXpuECNLakow7kAqKgeUFFb84HgsdY0Y0BDjdMHUMhygB69rT16+Toq8h4wUAn2AZT7XIBidiDM2n0AxTgXQAHFBWJSWWMloLgACCg+EFO+BEAV1QFm1A4zaoeZRmzTM2iHvgUVyL1OHtqDADMG5OAp7ZX4GFCimy7Bu9SrEkVdALQJR80WAKQJRy/vDZUJR5EXoFYELM1/bz+AJdlVBQFA9HHqFr1j3uxURgSARkWn9iJADRVr9haK6AxoOBeYoYJTVy1tPgACnw+02KaHuhouQNFN411ygRlbEqHg6AP6LlmlRQF6qHgpANwlpzzaGcVfpwArQFUVW6vEKwAYzqk6d9Vw59S1BYAsyym1d9US5xTzh+pwc9oFhmpYY7vJc2QUBpwOBgEgy2en7TSnGQMKdiX5AMUA1R3mAyCG+AAomD4QPKWmrobdqyIA6Brs9Bc3VBad9pmhWrGcBh0B4AGR0yKtOqucnqExMHklu2l76EYpu41pEKZlPgAZuwcw5qI+gN1hLgBdSWS3wg/VZCRAto5V9Qw57WSkWoDI7uYn1dFDzdT5SDXoOC1xpPptyP6BBFLtM06XHqnmFh/gFgJU24YHtOiSWnRJPbok1SvgAyO2B8L2GR9o0RlG7JQIu2E8gDHx84ESu62MUaUPjOgMFJ0BMhQPmFjH9YEW28PEKq4PzNCS5Kscs8P+3Z8hQPUS+ECPLUn1BfhAD1laAuctZDhWBXsf4BigSuk+QCG/xKpk7QMU8hqSU9WQX2JVtfUAVVD1AFXr9AGKzaBqij4QO9apKn4+gFGlA6h6nA/EfuZAAAylHaCoAMsFgpuuRwJzHeihJzqbSgdcIBYkzq5+WMQFgnYYUTuM6B4oGFUKEAvhpqoDeYCqA/lALG4VgKJL4tgMqg7kAyU6Q4s5MlU48gGK2WFi05v3s1A/O0b+R0L+8PNXGnx5fHp6+40I//3/+CsQ5K/efn1C/fgv);fillColor=none;hachureGap=4;pointerEvents=0;" vertex="1" parent="1">
          <mxGeometry x="26" y="66" width="156" height="22" as="geometry" />
        </mxCell>
        <mxCell id="ODsdG-qiCXv28M3b4BW5-4" value="开盘大跌，低位不破支撑，第三次大概率冲上去，但是冲上去还是会回吐一点利润。两个买点：1.第三次不破低位支撑 牛。2.上去最高点结合kdj看熊" style="text;html=1;strokeColor=none;fillColor=none;align=center;verticalAlign=middle;whiteSpace=wrap;rounded=0;hachureGap=4;pointerEvents=0;" vertex="1" parent="1">
          <mxGeometry x="28" y="120" width="182" height="70" as="geometry" />
        </mxCell>
        <mxCell id="ODsdG-qiCXv28M3b4BW5-6" value="" style="endArrow=classic;html=1;startSize=14;endSize=14;sourcePerimeterSpacing=8;targetPerimeterSpacing=8;entryX=0.598;entryY=1;entryDx=0;entryDy=0;entryPerimeter=0;" edge="1" parent="1" target="ODsdG-qiCXv28M3b4BW5-1">
          <mxGeometry width="50" height="50" relative="1" as="geometry">
            <mxPoint x="50" y="110" as="sourcePoint" />
            <mxPoint x="50" y="100" as="targetPoint" />
          </mxGeometry>
        </mxCell>
        <mxCell id="ODsdG-qiCXv28M3b4BW5-8" value="" style="endArrow=classic;html=1;startSize=14;endSize=14;sourcePerimeterSpacing=8;targetPerimeterSpacing=8;entryX=0;entryY=0.188;entryDx=0;entryDy=0;entryPerimeter=0;" edge="1" parent="1" target="ODsdG-qiCXv28M3b4BW5-2">
          <mxGeometry width="50" height="50" relative="1" as="geometry">
            <mxPoint x="130" y="40" as="sourcePoint" />
            <mxPoint x="180" y="-10" as="targetPoint" />
          </mxGeometry>
        </mxCell>
      </root>
    </mxGraphModel>
  </diagram>
</mxfile>
